<svg xmlns="http://www.w3.org/2000/svg" xmlns:xlink="http://www.w3.org/1999/xlink" xmlns:inkscape="http://www.inkscape.org/namespaces/inkscape" version="1.1" width="295" height="150" viewBox="0 0 295 150">
<path transform="matrix(1.00008,0,0,-1.00006,57.727296,91.91345)" stroke-width=".3985" stroke-linecap="butt" stroke-miterlimit="10" stroke-linejoin="miter" fill="none" stroke="#000000" d="M-56.2951 0H56.2951"/>
<path transform="matrix(-1.00008,-0,0,1.00006,1.2284241,91.91345)" stroke-width=".3985" stroke-linecap="round" stroke-linejoin="round" fill="none" stroke="#000000" d="M-2.07224 2.39104C-1.69365 .95639-.84999 .27895 0 0-.84999-.27895-1.69365-.95639-2.07224-2.39104"/>
<path transform="matrix(1.00008,0,0,-1.00006,114.226169,91.91345)" stroke-width=".3985" stroke-linecap="round" stroke-linejoin="round" fill="none" stroke="#000000" d="M-2.07224 2.39104C-1.69365 .95639-.84999 .27895 0 0-.84999-.27895-1.69365-.95639-2.07224-2.39104"/>
<path transform="matrix(1.00008,0,0,-1.00006,57.727296,91.91345)" stroke-width=".3985" stroke-linecap="butt" stroke-miterlimit="10" stroke-linejoin="miter" fill="none" stroke="#000000" d="M0-56.2951V56.2951"/>
<path transform="matrix(0,1.00006,1.00008,0,57.727296,148.4112)" stroke-width=".3985" stroke-linecap="round" stroke-linejoin="round" fill="none" stroke="#000000" d="M-2.07224 2.39104C-1.69365 .95639-.84999 .27895 0 0-.84999-.27895-1.69365-.95639-2.07224-2.39104"/>
<path transform="matrix(0,-1.00006,-1.00008,-0,57.727296,35.415716)" stroke-width=".3985" stroke-linecap="round" stroke-linejoin="round" fill="none" stroke="#000000" d="M-2.07224 2.39104C-1.69365 .95639-.84999 .27895 0 0-.84999-.27895-1.69365-.95639-2.07224-2.39104"/>
<path transform="matrix(1.00008,0,0,-1.00006,57.727296,91.91345)" stroke-width=".3985" stroke-linecap="butt" stroke-miterlimit="10" stroke-linejoin="miter" fill="none" stroke="#8080ff" d="M28.3468-56.69362-28.3468 56.69362"/>
<path transform="matrix(1.00008,0,0,-1.00006,57.727296,91.91345)" stroke-width=".79701" stroke-linecap="butt" stroke-miterlimit="10" stroke-linejoin="miter" fill="none" stroke="#0000ff" d="M0 0 13.817-27.63399"/>
<path transform="matrix(.44720576,.8944336,.8944515,-.4471968,71.72362,119.9055)" stroke-width=".79701" stroke-linecap="round" stroke-linejoin="round" fill="none" stroke="#0000ff" d="M-2.55046 3.11095C-2.0845 1.24435-1.04614 .36295 0 0-1.04614-.36295-2.0845-1.24435-2.55046-3.11095"/>
<path transform="matrix(1.00008,0,0,-1.00006,205.99216,86.24411)" stroke-width=".3985" stroke-linecap="butt" stroke-miterlimit="10" stroke-linejoin="miter" fill="none" stroke="#000000" d="M0 0-58.57301-33.81703"/>
<path transform="matrix(-.8660793,.50000998,.50001999,.8660619,147.2419,120.1628)" stroke-width=".3985" stroke-linecap="round" stroke-linejoin="round" fill="none" stroke="#000000" d="M-2.07224 2.39104C-1.69365 .95639-.84999 .27895 0 0-.84999-.27895-1.69365-.95639-2.07224-2.39104"/>
<path transform="matrix(1.00008,0,0,-1.00006,205.99216,86.24411)" stroke-width=".3985" stroke-linecap="butt" stroke-miterlimit="10" stroke-linejoin="miter" fill="none" stroke="#000000" d="M0 0H84.64192"/>
<path transform="matrix(1.00008,0,0,-1.00006,290.84013,86.24411)" stroke-width=".3985" stroke-linecap="round" stroke-linejoin="round" fill="none" stroke="#000000" d="M-2.07224 2.39104C-1.69365 .95639-.84999 .27895 0 0-.84999-.27895-1.69365-.95639-2.07224-2.39104"/>
<path transform="matrix(1.00008,0,0,-1.00006,205.99216,86.24411)" stroke-width=".3985" stroke-linecap="butt" stroke-miterlimit="10" stroke-linejoin="miter" fill="none" stroke="#000000" d="M0 0V84.64192"/>
<path transform="matrix(0,-1.00006,-1.00008,-0,205.99216,1.39785)" stroke-width=".3985" stroke-linecap="round" stroke-linejoin="round" fill="none" stroke="#000000" d="M-2.07224 2.39104C-1.69365 .95639-.84999 .27895 0 0-.84999-.27895-1.69365-.95639-2.07224-2.39104"/>
<path transform="matrix(1.00008,0,0,-1.00006,205.99216,86.24411)" d="M-8.70743 39.68556-87.26492-62.36308 8.70743-39.68556 87.26492 62.36308-8.70743 39.68556" fill="#f2ccd9" fill-opacity=".5"/>
<path transform="matrix(1.00008,0,0,-1.00006,205.99216,86.24411)" stroke-width=".3985" stroke-linecap="butt" stroke-miterlimit="10" stroke-linejoin="miter" fill="none" stroke="#000000" d="M-8.70743 39.68556-87.26492-62.36308 8.70743-39.68556 87.26492 62.36308-8.70743 39.68556"/>
<path transform="matrix(1.00008,0,0,-1.00006,205.99216,86.24411)" stroke-width=".79701" stroke-linecap="butt" stroke-miterlimit="10" stroke-linejoin="miter" fill="none" stroke="#0000ff" d="M0 0-23.21747-5.48611"/>
<path transform="matrix(-.97321787,.22994378,.22994839,.97319838,182.385,91.82218)" stroke-width=".79701" stroke-linecap="round" stroke-linejoin="round" fill="none" stroke="#0000ff" d="M-2.55046 3.11095C-2.0845 1.24435-1.04614 .36295 0 0-1.04614-.36295-2.0845-1.24435-2.55046-3.11095"/>
<path transform="matrix(1.00008,0,0,-1.00006,205.99216,86.24411)" stroke-width=".79701" stroke-linecap="butt" stroke-miterlimit="10" stroke-linejoin="miter" fill="none" stroke="#ff0000" d="M0 0 19.15324 24.88063"/>
<path transform="matrix(.6099988,-.7924175,-.7924334,-.6099866,225.39,61.0462)" stroke-width=".79701" stroke-linecap="round" stroke-linejoin="round" fill="none" stroke="#ff0000" d="M-2.55046 3.11095C-2.0845 1.24435-1.04614 .36295 0 0-1.04614-.36295-2.0845-1.24435-2.55046-3.11095"/>
</svg>
