<svg xmlns="http://www.w3.org/2000/svg" xmlns:xlink="http://www.w3.org/1999/xlink" xmlns:inkscape="http://www.inkscape.org/namespaces/inkscape" version="1.1" width="353" height="298" viewBox="0 0 353 298">
<path transform="matrix(1.00005,0,0,-1.00009,176.56583,171.29334)" stroke-width=".3985" stroke-linecap="butt" stroke-miterlimit="10" stroke-linejoin="miter" fill="none" stroke="#000000" d="M0 0-117.49115-67.83331"/>
<path transform="matrix(-.8660533,.500025,.50000497,.866088,58.89627,239.23239)" stroke-width=".3985" stroke-linecap="round" stroke-linejoin="round" fill="none" stroke="#000000" d="M-2.07224 2.39104C-1.69365 .95639-.84999 .27895 0 0-.84999-.27895-1.69365-.95639-2.07224-2.39104"/>
<path transform="matrix(1.00005,0,0,-1.00009,176.56583,171.29334)" stroke-width=".3985" stroke-linecap="butt" stroke-miterlimit="10" stroke-linejoin="miter" fill="none" stroke="#000000" d="M0 0H169.68235"/>
<path transform="matrix(1.00005,0,0,-1.00009,346.4559,171.29334)" stroke-width=".3985" stroke-linecap="round" stroke-linejoin="round" fill="none" stroke="#000000" d="M-2.07224 2.39104C-1.69365 .95639-.84999 .27895 0 0-.84999-.27895-1.69365-.95639-2.07224-2.39104"/>
<path transform="matrix(1.00005,0,0,-1.00009,176.56583,171.29334)" stroke-width=".3985" stroke-linecap="butt" stroke-miterlimit="10" stroke-linejoin="miter" fill="none" stroke="#000000" d="M0 0V169.68235"/>
<path transform="matrix(0,-1.00009,-1.00005,-0,176.56583,1.3964539)" stroke-width=".3985" stroke-linecap="round" stroke-linejoin="round" fill="none" stroke="#000000" d="M-2.07224 2.39104C-1.69365 .95639-.84999 .27895 0 0-.84999-.27895-1.69365-.95639-2.07224-2.39104"/>
<path transform="matrix(1.00005,0,0,-1.00009,176.56583,171.29334)" d="M-17.41486 79.37114-174.52986-124.72618 17.41486-79.37114 174.52986 124.72618-17.41486 79.37114" fill="#f2ccd9" fill-opacity=".5"/>
<path transform="matrix(1.00005,0,0,-1.00009,176.56583,171.29334)" stroke-width=".3985" stroke-linecap="butt" stroke-miterlimit="10" stroke-linejoin="miter" fill="none" stroke="#000000" d="M-17.41486 79.37114-174.52986-124.72618 17.41486-79.37114 174.52986 124.72618-17.41486 79.37114"/>
<path transform="matrix(1.00005,0,0,-1.00009,176.56583,171.29334)" stroke-width=".79701" stroke-linecap="butt" stroke-miterlimit="10" stroke-linejoin="miter" fill="none" stroke="#0000ff" d="M0 0-47.21057-11.15549"/>
<path transform="matrix(-.9731886,.2299507,.22994149,.97322759,128.96509,182.54148)" stroke-width=".79701" stroke-linecap="round" stroke-linejoin="round" fill="none" stroke="#0000ff" d="M-2.55046 3.11095C-2.0845 1.24435-1.04614 .36295 0 0-1.04614-.36295-2.0845-1.24435-2.55046-3.11095"/>
<path transform="matrix(1.00005,0,0,-1.00009,176.56583,171.29334)" stroke-width=".79701" stroke-linecap="butt" stroke-miterlimit="10" stroke-linejoin="miter" fill="none" stroke="#ff0000" d="M0 0 38.79262 50.3928"/>
<path transform="matrix(.60998049,-.7924413,-.7924096,-.6100049,215.60344,120.580219)" stroke-width=".79701" stroke-linecap="round" stroke-linejoin="round" fill="none" stroke="#ff0000" d="M-2.55046 3.11095C-2.0845 1.24435-1.04614 .36295 0 0-1.04614-.36295-2.0845-1.24435-2.55046-3.11095"/>
<path transform="matrix(1.00005,0,0,-1.00009,176.56583,171.29334)" stroke-width=".79701" stroke-linecap="butt" stroke-miterlimit="10" stroke-linejoin="miter" fill="none" stroke="#bf0040" d="M0 0 8.53665-38.90712"/>
<path transform="matrix(.2142907,.9768079,.97676876,-.21429928,185.1883,210.59322)" stroke-width=".79701" stroke-linecap="round" stroke-linejoin="round" fill="none" stroke="#bf0040" d="M-2.55046 3.11095C-2.0845 1.24435-1.04614 .36295 0 0-1.04614-.36295-2.0845-1.24435-2.55046-3.11095"/>
</svg>
